# xmcd CD database file
#
# Track frame offsets:
#	150
#	17800
#	25687
#	49931
#	65948
#	79510
#	100982
#	106604
#	126836
#	144491
#	175218
#	189680
#	219469
#	237329
#
# Disc length: 3444 seconds
#
# Revision: 1
# Processed by: cddbd v1.5PL3 Copyright (c) Steve Scherf et al.
# Submitted via: CDex 1.51
#
DISCID=c10d720e
DTITLE=seven ages - seven ages
DYEAR=1996
DGENRE=New Age
TTITLE0=on the lake
TTITLE1=rain
TTITLE2=reach the clouds
TTITLE3=endless fighting
TTITLE4=dark moss body
TTITLE5=pictures to hide
TTITLE6=the world below
TTITLE7=there is no way
TTITLE8=out again
TTITLE9=good vibes
TTITLE10=ash
TTITLE11=power poisons
TTITLE12=take the fruit
TTITLE13=fly
EXTD=YEAR: 1996
EXTT0=
EXTT1=
EXTT2=
EXTT3=
EXTT4=
EXTT5=
EXTT6=
EXTT7=
EXTT8=
EXTT9=
EXTT10=
EXTT11=
EXTT12=
EXTT13=
PLAYORDER=
